<svg width="1200" height="300" viewBox="0 0 1200 300" fill="none" xmlns="http://www.w3.org/2000/svg">
  <!-- Dark background -->
  <rect width="1200" height="300" fill="#0F1315"/>

  <!-- Logo (centered, scaled 1.5x from original 300x61) -->
  <g transform="translate(375, 85) scale(1.5)">
    <g clip-path="url(#clip0_20_267)">
      <path d="M32.395 59.8922L39.495 41.7122C39.675 41.2622 39.215 40.8222 38.765 41.0122L20.895 48.8722C20.495 49.0522 20.455 49.6022 20.825 49.8322L25.365 52.6522C25.655 52.8322 25.715 53.2422 25.475 53.4922L20.535 58.6422C20.325 58.8622 20.335 59.2022 20.555 59.4122L21.875 60.6822C22.095 60.8922 22.435 60.8822 22.645 60.6622L27.585 55.5122C27.825 55.2622 28.235 55.2922 28.425 55.5822L31.435 60.0022C31.685 60.3622 32.235 60.3022 32.395 59.8922Z" fill="white"/>
      <path d="M5.95511 46.742L25.2551 43.802C25.7351 43.732 25.8851 43.112 25.4951 42.822L9.75511 31.272C9.40511 31.012 8.90511 31.252 8.88511 31.692L8.71511 37.032C8.70511 37.382 8.37511 37.622 8.04511 37.542L1.11511 35.842C0.825109 35.772 0.525109 35.952 0.455109 36.242L0.0151087 38.022C-0.0548913 38.312 0.125109 38.612 0.415109 38.682L7.34511 40.382C7.68511 40.462 7.85511 40.832 7.70511 41.152L5.37511 45.962C5.18511 46.352 5.51511 46.802 5.94511 46.742H5.95511Z" fill="white"/>
      <path d="M4.12507 17.2622L16.3251 32.5022C16.6251 32.8822 17.2351 32.7022 17.2951 32.2222L19.4251 12.8222C19.4751 12.3822 19.0151 12.0722 18.6251 12.2822L13.9151 14.8122C13.6051 14.9722 13.2351 14.8122 13.1351 14.4822L11.1451 7.62217C11.0651 7.33217 10.7551 7.16217 10.4651 7.25217L8.70507 7.76217C8.41507 7.84217 8.24507 8.15217 8.33507 8.44217L10.3251 15.3022C10.4251 15.6322 10.1851 15.9722 9.84507 16.0022L4.51507 16.3922C4.07507 16.4222 3.85507 16.9322 4.12507 17.2722V17.2622Z" fill="white"/>
      <path d="M28.7352 0.941934L21.6352 19.1219C21.4552 19.5719 21.9152 20.0119 22.3652 19.8219L40.2352 11.9619C40.6352 11.7819 40.6752 11.2319 40.3052 11.0019L35.7652 8.18193C35.4752 8.00193 35.4152 7.59193 35.6552 7.34193L40.5952 2.19193C40.8052 1.97193 40.7952 1.63193 40.5752 1.42193L39.2552 0.151934C39.0352 -0.0580655 38.6952 -0.0480656 38.4852 0.171934L33.5452 5.32193C33.3052 5.57193 32.8952 5.54193 32.7052 5.25193L29.6952 0.831934C29.4452 0.471934 28.8952 0.531934 28.7352 0.941934Z" fill="white"/>
      <path d="M55.1752 14.0918L35.8752 17.0318C35.3952 17.1018 35.2452 17.7218 35.6352 18.0118L51.3752 29.5618C51.7252 29.8218 52.2252 29.5818 52.2452 29.1418L52.4152 23.8018C52.4252 23.4518 52.7552 23.2118 53.0852 23.2918L60.0152 24.9918C60.3052 25.0618 60.6052 24.8818 60.6752 24.5918L61.1152 22.8118C61.1852 22.5218 61.0052 22.2218 60.7152 22.1518L53.7852 20.4518C53.4452 20.3718 53.2752 20.0018 53.4252 19.6818L55.7552 14.8718C55.9452 14.4818 55.6152 14.0318 55.1852 14.0918H55.1752Z" fill="white"/>
      <path d="M57.0052 43.5622L44.8052 28.3222C44.5052 27.9422 43.8952 28.1222 43.8352 28.6022L41.7052 48.0022C41.6552 48.4422 42.1152 48.7522 42.5052 48.5422L47.2152 46.0122C47.5252 45.8522 47.8952 46.0122 47.9952 46.3422L49.9852 53.2022C50.0652 53.4922 50.3752 53.6622 50.6652 53.5722L52.4252 53.0622C52.7152 52.9822 52.8852 52.6722 52.7952 52.3822L50.8052 45.5222C50.7052 45.1922 50.9452 44.8522 51.2852 44.8222L56.6152 44.4322C57.0552 44.4022 57.2752 43.8922 57.0052 43.5522V43.5622Z" fill="white"/>
      <path d="M91.8104 50.0133C88.3104 50.0133 85.2404 49.2233 82.6004 47.6433C79.9704 46.0633 77.8904 43.8633 76.3904 41.0433C74.8804 38.2133 74.1304 34.9333 74.1304 31.1833C74.1304 27.4333 74.8804 24.2033 76.3904 21.3833C77.9004 18.5633 79.9704 16.3433 82.6004 14.7533C85.2304 13.1633 88.3004 12.3633 91.8104 12.3633C95.3204 12.3633 98.4604 13.1633 101.14 14.7533C103.83 16.3533 105.91 18.5633 107.38 21.3833C108.85 24.2133 109.59 27.4733 109.59 31.1833C109.59 34.8933 108.85 38.2133 107.38 41.0433C105.91 43.8733 103.83 46.0733 101.14 47.6433C98.4504 49.2233 95.3404 50.0133 91.8104 50.0133ZM91.8104 45.3833C94.3404 45.3833 96.5404 44.8133 98.4104 43.6633C100.28 42.5233 101.73 40.8933 102.75 38.7733C103.77 36.6533 104.28 34.1233 104.28 31.1833C104.28 28.2433 103.77 25.7033 102.75 23.5933C101.73 21.4733 100.28 19.8533 98.4104 18.7333C96.5404 17.6033 94.3404 17.0433 91.8104 17.0433C89.2804 17.0433 87.1904 17.6033 85.3404 18.7333C83.4804 19.8633 82.0404 21.4833 81.0004 23.5933C79.9604 25.7033 79.4404 28.2433 79.4404 31.1833C79.4404 34.1233 79.9604 36.6633 81.0004 38.7733C82.0404 40.8833 83.4904 42.5133 85.3404 43.6633C87.1904 44.8033 89.3504 45.3833 91.8104 45.3833Z" fill="white"/>
      <path d="M112.46 60.8232V23.1732H117.14L117.66 27.2332C118.18 26.4332 118.86 25.6832 119.71 24.9732C120.56 24.2632 121.56 23.6832 122.7 23.2332C123.84 22.7832 125.2 22.5532 126.76 22.5532C129.29 22.5532 131.5 23.1532 133.39 24.3432C135.28 25.5432 136.75 27.1732 137.81 29.2332C138.87 31.2932 139.4 33.6632 139.4 36.3332C139.4 39.0032 138.86 41.3132 137.79 43.3832C136.71 45.4432 135.23 47.0632 133.34 48.2432C131.45 49.4232 129.24 50.0132 126.71 50.0132C124.66 50.0132 122.87 49.6032 121.33 48.7932C119.79 47.9832 118.56 46.8432 117.66 45.3832V60.8332H112.46V60.8232ZM125.93 45.4832C127.49 45.4832 128.89 45.1032 130.12 44.3432C131.35 43.5832 132.32 42.5132 133.03 41.1432C133.74 39.7732 134.1 38.1732 134.1 36.3332C134.1 34.4932 133.74 32.8432 133.03 31.4732C132.32 30.1032 131.35 29.0232 130.12 28.2532C128.89 27.4732 127.49 27.0832 125.93 27.0832C124.27 27.0832 122.82 27.4732 121.59 28.2532C120.36 29.0332 119.41 30.1132 118.73 31.4732C118.05 32.8432 117.72 34.4632 117.72 36.3332C117.72 38.2032 118.06 39.7632 118.73 41.1232C119.41 42.4732 120.36 43.5432 121.59 44.3232C122.82 45.1032 124.27 45.4932 125.93 45.4932V45.4832Z" fill="white"/>
      <path d="M154.22 50.0132C151.72 50.0132 149.51 49.4432 147.59 48.2932C145.67 47.1532 144.16 45.5532 143.07 43.5132C141.98 41.4632 141.43 39.0732 141.43 36.3332C141.43 33.5932 141.96 31.1932 143.02 29.1332C144.08 27.0732 145.58 25.4632 147.54 24.2932C149.5 23.1332 151.76 22.5532 154.33 22.5532C156.9 22.5532 159.1 23.1232 160.93 24.2732C162.76 25.4232 164.18 26.9232 165.17 28.7932C166.16 30.6632 166.65 32.7432 166.65 35.0332V36.1732C166.65 36.5932 166.61 37.0232 166.55 37.4732H145.23V33.8332H161.51C161.41 31.6832 160.68 29.9832 159.33 28.7332C157.98 27.4832 156.3 26.8632 154.29 26.8632C152.87 26.8632 151.57 27.1832 150.39 27.8232C149.21 28.4632 148.27 29.4032 147.58 30.6332C146.89 31.8632 146.54 33.4132 146.54 35.2832V36.7432C146.54 38.6832 146.89 40.3132 147.58 41.6332C148.27 42.9532 149.2 43.9532 150.36 44.6532C151.52 45.3432 152.81 45.6932 154.24 45.6932C155.9 45.6932 157.28 45.3332 158.37 44.6032C159.46 43.8732 160.25 42.8832 160.74 41.6432H165.94C165.49 43.2432 164.73 44.6732 163.65 45.9332C162.57 47.2032 161.26 48.1932 159.7 48.9232C158.14 49.6532 156.32 50.0132 154.24 50.0132H154.22Z" fill="white"/>
      <path d="M169.35 49.3835V23.1735H174.03L174.34 27.6435C175.17 26.0535 176.34 24.8035 177.85 23.8935C179.36 22.9935 181.12 22.5435 183.13 22.5435C185.24 22.5435 187.05 22.9635 188.54 23.7935C190.03 24.6235 191.18 25.8835 192 27.5635C192.81 29.2435 193.22 31.3535 193.22 33.8835V49.3835H188.02V34.4035C188.02 31.9735 187.48 30.1335 186.41 28.8635C185.33 27.5935 183.77 26.9635 181.73 26.9635C180.38 26.9635 179.16 27.2935 178.09 27.9535C177.02 28.6135 176.16 29.5635 175.52 30.8135C174.88 32.0635 174.56 33.5835 174.56 35.3935V49.3835H169.36H169.35Z" fill="white"/>
      <path d="M200.97 49.3833L193.27 23.1733H198.47L204.19 45.0133H203.25L209.49 23.1733H215.31L221.71 44.9633L220.72 45.0133L226.39 23.1733H231.59L223.95 49.3833H218.59L211.99 26.6533H213.03L206.32 49.3833H200.96H200.97Z" fill="white"/>
      <path d="M244.24 50.0132C241.74 50.0132 239.51 49.4432 237.53 48.2932C235.55 47.1532 234.01 45.5432 232.9 43.4832C231.79 41.4232 231.24 39.0332 231.24 36.3332C231.24 33.6332 231.8 31.1432 232.93 29.0832C234.06 27.0232 235.61 25.4132 237.58 24.2732C239.56 23.1332 241.77 22.5532 244.24 22.5532C246.71 22.5532 248.95 23.1232 250.9 24.2732C252.85 25.4232 254.38 27.0132 255.53 29.0532C256.67 31.1032 257.25 33.5132 257.25 36.2832C257.25 39.0532 256.68 41.4232 255.53 43.4832C254.39 45.5432 252.83 47.1532 250.88 48.2932C248.92 49.4332 246.71 50.0132 244.25 50.0132H244.24ZM244.18 45.5332C245.57 45.5332 246.84 45.1832 248 44.4932C249.16 43.8032 250.11 42.7632 250.83 41.3732C251.56 39.9832 251.92 38.2832 251.92 36.2732C251.92 34.2632 251.56 32.5232 250.85 31.1532C250.14 29.7832 249.21 28.7532 248.07 28.0632C246.93 27.3732 245.66 27.0232 244.27 27.0232C242.88 27.0232 241.6 27.3732 240.42 28.0632C239.24 28.7532 238.3 29.7832 237.59 31.1532C236.88 32.5232 236.52 34.2332 236.52 36.2732C236.52 38.3132 236.87 39.9832 237.59 41.3732C238.31 42.7632 239.23 43.8032 240.37 44.4932C241.51 45.1832 242.78 45.5332 244.17 45.5332H244.18Z" fill="white"/>
      <path d="M260.2 49.3835V23.1735H264.88L265.3 28.1135C265.92 26.9335 266.7 25.9435 267.61 25.1235C268.53 24.3135 269.64 23.6735 270.94 23.2235C272.24 22.7735 273.69 22.5435 275.28 22.5435V28.0035H273.41C272.33 28.0035 271.31 28.1435 270.34 28.4235C269.37 28.7035 268.52 29.1535 267.79 29.7735C267.06 30.3935 266.48 31.2435 266.05 32.2935C265.62 33.3435 265.4 34.6935 265.4 36.3235V49.3735H260.2V49.3835Z" fill="white"/>
      <path d="M276.95 49.3834V11.9434H282.15V49.3834H276.95ZM293.43 49.3834L281.36 35.0334L292.33 23.1734H298.57L285.62 37.0034L285.57 33.1534L299.98 49.3834H293.43Z" fill="white"/>
    </g>
    <defs>
      <clipPath id="clip0_20_267">
        <rect width="299.98" height="60.8331" fill="white"/>
      </clipPath>
    </defs>
  </g>

  <!-- Tagline -->
  <text x="600" y="210" font-family="system-ui, -apple-system, BlinkMacSystemFont, 'Segoe UI', Roboto, sans-serif" font-size="24" fill="#9EADA9" text-anchor="middle">
    The open source AI coworker that lives on your desktop
  </text>

  <!-- MIT Badge -->
  <g transform="translate(550, 235)">
    <rect x="0" y="0" width="100" height="24" rx="12" fill="#22c55e" fill-opacity="0.15"/>
    <circle cx="14" cy="12" r="4" fill="#22c55e"/>
    <text x="50" y="16" font-family="system-ui, -apple-system, BlinkMacSystemFont, 'Segoe UI', Roboto, sans-serif" font-size="12" fill="#22c55e" text-anchor="middle">MIT License</text>
  </g>
</svg>
